<svg width="169" height="181" viewBox="0 0 169 181" fill="none" xmlns="http://www.w3.org/2000/svg">
<path d="M64.5 12.6299C76.876 5.4846 92.124 5.4846 104.5 12.6299L141.937 34.2444C154.314 41.3898 161.937 54.5948 161.937 68.8855V112.115C161.937 126.405 154.314 139.61 141.937 146.756L104.5 168.37C92.124 175.515 76.876 175.515 64.5 168.37L27.0625 146.756C14.6865 139.61 7.06253 126.405 7.06253 112.115V68.8855C7.06253 54.5948 14.6865 41.3898 27.0625 34.2444L64.5 12.6299Z" stroke="#00D1FF" stroke-width="14"/>
<path d="M64.5 12.6299C76.876 5.4846 92.124 5.4846 104.5 12.6299L141.937 34.2444C154.314 41.3898 161.937 54.5948 161.937 68.8855V112.115C161.937 126.405 154.314 139.61 141.937 146.756L104.5 168.37C92.124 175.515 76.876 175.515 64.5 168.37L27.0625 146.756C14.6865 139.61 7.06253 126.405 7.06253 112.115V68.8855C7.06253 54.5948 14.6865 41.3898 27.0625 34.2444L64.5 12.6299Z" stroke="#FF0000" stroke-width="14"/>
</svg>
